<?xml version="1.0" encoding="UTF-8"?>
<svg xmlns="http://www.w3.org/2000/svg" xmlns:xlink="http://www.w3.org/1999/xlink" width="40pt" height="42pt" viewBox="0 0 40 42" version="1.1">
<g id="surface1">
<path style=" stroke:none;fill-rule:nonzero;fill:rgb(100%,100%,100%);fill-opacity:1;" d="M 17.824219 2.011719 C 9.21875 3.050781 2.585938 9.324219 1.207031 17.714844 C 0.335938 23.058594 1.742188 28.476562 5.089844 32.675781 C 5.695312 33.4375 7.242188 34.976562 8.023438 35.597656 C 9.898438 37.09375 12.308594 38.332031 14.621094 38.992188 C 16.574219 39.550781 18.449219 39.777344 20.589844 39.710938 C 23.460938 39.625 25.914062 39.027344 28.445312 37.800781 C 33.976562 35.105469 37.785156 29.992188 38.777344 23.933594 C 39.402344 20.101562 38.878906 16.332031 37.214844 12.667969 C 36.648438 11.417969 35.519531 9.683594 34.496094 8.496094 C 32.804688 6.535156 30.847656 5.015625 28.542969 3.890625 C 26.398438 2.828125 24.269531 2.222656 21.808594 1.976562 C 20.835938 1.886719 18.757812 1.898438 17.824219 2.011719 Z M 21.417969 9.660156 C 23.214844 10.148438 24.636719 11.550781 25.222656 13.410156 C 25.441406 14.101562 25.457031 15.519531 25.261719 16.230469 C 24.347656 19.546875 20.660156 21.207031 17.578125 19.699219 C 16.199219 19.011719 15.132812 17.726562 14.722656 16.230469 C 14.53125 15.511719 14.542969 14.09375 14.757812 13.410156 C 15.070312 12.429688 15.441406 11.820312 16.195312 11.082031 C 16.867188 10.402344 17.410156 10.050781 18.195312 9.769531 C 19.117188 9.425781 20.398438 9.394531 21.417969 9.660156 Z M 21.664062 23.074219 C 24.816406 23.464844 27.605469 24.738281 30.226562 26.980469 C 31.832031 28.347656 32.277344 28.992188 32.277344 29.894531 C 32.273438 30.652344 32.054688 31.03125 31.148438 31.871094 C 28.335938 34.460938 25.050781 36.011719 21.519531 36.421875 C 20.589844 36.53125 18.410156 36.464844 17.472656 36.308594 C 14.152344 35.753906 11.378906 34.355469 8.960938 32.011719 C 7.902344 30.988281 7.707031 30.652344 7.710938 29.890625 C 7.710938 29.027344 8.058594 28.503906 9.429688 27.269531 C 12.058594 24.90625 15.027344 23.492188 18.226562 23.085938 C 18.929688 23 20.960938 22.992188 21.664062 23.074219 Z M 21.664062 23.074219 "/>
</g>
</svg>
